<svg width="689" height="267" viewBox="0 0 689 267" fill="none" xmlns="http://www.w3.org/2000/svg">
<g clip-path="url(#clip0_6_14)">
<rect width="689" height="267" fill="white"/>
<circle cx="153" cy="125" r="115" fill="#D16B86"/>
<path d="M133.1 195V57.12H133.28L200.42 152.34L269.18 57.12H269.54V195H243.44V131.82L200.24 193.2H199.88L158.3 135.78V195H133.1Z" fill="white"/>
<path d="M290.2 197.4C282.067 197.4 274.667 195.8 268 192.6C261.467 189.267 256.267 184.2 252.4 177.4C248.533 170.6 246.6 161.933 246.6 151.4C246.6 141.533 248.6 133 252.6 125.8C256.6 118.6 261.867 113.067 268.4 109.2C274.933 105.2 281.867 103.2 289.2 103.2C297.733 103.2 304.2 104.6 308.6 107.4C313 110.067 316.667 113.133 319.6 116.6L321.4 107.6H347.4V195H319.4V184.2C318.067 185.533 316.067 187.267 313.4 189.4C310.867 191.533 307.667 193.4 303.8 195C299.933 196.6 295.4 197.4 290.2 197.4ZM298.2 174.6C307.933 174.6 315 170.2 319.4 161.4V140C317.8 135.733 315 132.333 311 129.8C307.133 127.267 302.533 126 297.2 126C291.2 126 286 128.267 281.6 132.8C277.2 137.2 275 142.933 275 150C275 154.667 276.067 158.867 278.2 162.6C280.333 166.333 283.133 169.267 286.6 171.4C290.2 173.533 294.067 174.6 298.2 174.6ZM401.652 107.6L403.652 121.6C406.718 116.133 411.052 111.733 416.652 108.4C422.252 105.067 429.052 103.4 437.052 103.4C445.318 103.4 452.185 105.867 457.652 110.8C463.252 115.6 466.118 121.867 466.252 129.6V195H438.252V140C438.118 136.133 437.052 133.067 435.052 130.8C433.185 128.4 429.985 127.2 425.452 127.2C418.918 127.2 413.718 130.267 409.852 136.4C406.118 142.4 404.252 150.067 404.252 159.4V195H376.252V107.6H401.652ZM488.202 150.2C488.202 141.267 490.268 133.267 494.402 126.2C498.668 119.133 504.602 113.6 512.202 109.6C519.802 105.467 528.535 103.4 538.402 103.4C548.402 103.4 557.068 105.467 564.402 109.6C571.735 113.6 577.335 119.133 581.202 126.2C585.202 133.267 587.202 141.267 587.202 150.2C587.202 159.133 585.202 167.2 581.202 174.4C577.335 181.467 571.735 187.067 564.402 191.2C557.068 195.333 548.268 197.4 538.002 197.4C528.402 197.4 519.802 195.533 512.202 191.8C504.735 188.067 498.868 182.667 494.602 175.6C490.335 168.533 488.202 160.067 488.202 150.2ZM516.402 150.4C516.402 157.333 518.402 163.133 522.402 167.8C526.402 172.333 531.468 174.6 537.602 174.6C544.135 174.6 549.335 172.333 553.202 167.8C557.068 163.133 559.002 157.333 559.002 150.4C559.002 143.467 557.068 137.733 553.202 133.2C549.335 128.533 544.135 126.2 537.602 126.2C531.468 126.2 526.402 128.533 522.402 133.2C518.402 137.733 516.402 143.467 516.402 150.4ZM615.059 237.2L598.859 219.8C602.859 216.867 605.926 213.267 608.059 209C610.326 204.733 611.459 199.533 611.459 193.4V107.6H639.459V195C639.459 205.4 637.593 214 633.859 220.8C630.126 227.733 623.859 233.2 615.059 237.2ZM610.459 76.6C610.459 72.4667 612.059 69.0667 615.259 66.4C618.593 63.7333 622.126 62.4 625.859 62.4C629.593 62.4 632.993 63.7333 636.059 66.4C639.259 69.0667 640.859 72.4667 640.859 76.6C640.859 80.7333 639.259 84.1333 636.059 86.8C632.993 89.3333 629.593 90.6 625.859 90.6C622.126 90.6 618.593 89.3333 615.259 86.8C612.059 84.1333 610.459 80.7333 610.459 76.6Z" fill="#3F78E0"/>
</g>
<defs>
<clipPath id="clip0_6_14">
<rect width="689" height="267" fill="white"/>
</clipPath>
</defs>
</svg>
